{
	"asset":{
		"generator":"Khronos glTF Blender I/O v4.2.57",
		"version":"2.0"
	},
	"scene":0,
	"scenes":[
		{
			"name":"Scene",
			"nodes":[
				0,
				1,
				2,
				3,
				4,
				5,
				6,
				7,
				8,
				9
			]
		}
	],
	"nodes":[
		{
			"mesh":0,
			"name":"Dont know"
		},
		{
			"mesh":1,
			"name":"Shoulder"
		},
		{
			"mesh":2,
			"name":"Bicep and Tricep"
		},
		{
			"mesh":3,
			"name":"Forearm"
		},
		{
			"mesh":4,
			"name":"Wrist and Hand"
		},
		{
			"mesh":5,
			"name":"Thumb"
		},
		{
			"mesh":6,
			"name":"Index Finger"
		},
		{
			"mesh":7,
			"name":"Middle Finger"
		},
		{
			"mesh":8,
			"name":"Ring Finger"
		},
		{
			"mesh":9,
			"name":"Little Finger"
		}
	],
	"materials":[
		{
			"doubleSided":true,
			"name":"BodyMat.001",
			"pbrMetallicRoughness":{
				"baseColorFactor":[
					0.38235294818878174,
					0.38235294818878174,
					0.38235294818878174,
					1
				],
				"metallicFactor":0,
				"roughnessFactor":0.5
			}
		}
	],
	"meshes":[
		{
			"name":"body012_2.001",
			"primitives":[
				{
					"attributes":{
						"POSITION":0,
						"NORMAL":1
					},
					"indices":2,
					"material":0
				}
			]
		},
		{
			"name":"body012_2.002",
			"primitives":[
				{
					"attributes":{
						"POSITION":3,
						"NORMAL":4
					},
					"indices":5,
					"material":0
				}
			]
		},
		{
			"name":"body012_2.003",
			"primitives":[
				{
					"attributes":{
						"POSITION":6,
						"NORMAL":7
					},
					"indices":8,
					"material":0
				}
			]
		},
		{
			"name":"body012_2.004",
			"primitives":[
				{
					"attributes":{
						"POSITION":9,
						"NORMAL":10
					},
					"indices":11,
					"material":0
				}
			]
		},
		{
			"name":"body012_2.005",
			"primitives":[
				{
					"attributes":{
						"POSITION":12,
						"NORMAL":13
					},
					"indices":14,
					"material":0
				}
			]
		},
		{
			"name":"body012_2.006",
			"primitives":[
				{
					"attributes":{
						"POSITION":15,
						"NORMAL":16
					},
					"indices":17,
					"material":0
				}
			]
		},
		{
			"name":"body012_2.007",
			"primitives":[
				{
					"attributes":{
						"POSITION":18,
						"NORMAL":19
					},
					"indices":20,
					"material":0
				}
			]
		},
		{
			"name":"body012_2.008",
			"primitives":[
				{
					"attributes":{
						"POSITION":21,
						"NORMAL":22
					},
					"indices":23,
					"material":0
				}
			]
		},
		{
			"name":"body012_2.009",
			"primitives":[
				{
					"attributes":{
						"POSITION":24,
						"NORMAL":25
					},
					"indices":26,
					"material":0
				}
			]
		},
		{
			"name":"body012_2.010",
			"primitives":[
				{
					"attributes":{
						"POSITION":27,
						"NORMAL":28
					},
					"indices":29,
					"material":0
				}
			]
		}
	],
	"accessors":[
		{
			"bufferView":0,
			"componentType":5126,
			"count":53736,
			"max":[
				0.03597552701830864,
				0.23720897734165192,
				0.021686360239982605
			],
			"min":[
				-0.06575111299753189,
				-0.0015775536885485053,
				-0.017477886751294136
			],
			"type":"VEC3"
		},
		{
			"bufferView":1,
			"componentType":5126,
			"count":53736,
			"type":"VEC3"
		},
		{
			"bufferView":2,
			"componentType":5123,
			"count":322131,
			"type":"SCALAR"
		},
		{
			"bufferView":3,
			"componentType":5126,
			"count":1371,
			"max":[
				0.03747626021504402,
				0.1989419311285019,
				0.006674822419881821
			],
			"min":[
				0.01512973103672266,
				0.17540283501148224,
				-0.016235971823334694
			],
			"type":"VEC3"
		},
		{
			"bufferView":4,
			"componentType":5126,
			"count":1371,
			"type":"VEC3"
		},
		{
			"bufferView":5,
			"componentType":5123,
			"count":7839,
			"type":"SCALAR"
		},
		{
			"bufferView":6,
			"componentType":5126,
			"count":2083,
			"max":[
				0.0458197258412838,
				0.18282143771648407,
				0.005179951898753643
			],
			"min":[
				0.02526251971721649,
				0.15024825930595398,
				-0.014383341185748577
			],
			"type":"VEC3"
		},
		{
			"bufferView":7,
			"componentType":5126,
			"count":2083,
			"type":"VEC3"
		},
		{
			"bufferView":8,
			"componentType":5123,
			"count":11994,
			"type":"SCALAR"
		},
		{
			"bufferView":9,
			"componentType":5126,
			"count":1907,
			"max":[
				0.058242421597242355,
				0.16172532737255096,
				0.008150938898324966
			],
			"min":[
				0.03464299812912941,
				0.12398504465818405,
				-0.006931285839527845
			],
			"type":"VEC3"
		},
		{
			"bufferView":10,
			"componentType":5126,
			"count":1907,
			"type":"VEC3"
		},
		{
			"bufferView":11,
			"componentType":5123,
			"count":11040,
			"type":"SCALAR"
		},
		{
			"bufferView":12,
			"componentType":5126,
			"count":1483,
			"max":[
				0.06329351663589478,
				0.12806467711925507,
				0.012977667152881622
			],
			"min":[
				0.04980839788913727,
				0.11097533255815506,
				0.0008994553936645389
			],
			"type":"VEC3"
		},
		{
			"bufferView":13,
			"componentType":5126,
			"count":1483,
			"type":"VEC3"
		},
		{
			"bufferView":14,
			"componentType":5123,
			"count":8304,
			"type":"SCALAR"
		},
		{
			"bufferView":15,
			"componentType":5126,
			"count":258,
			"max":[
				0.06558844447135925,
				0.12249739468097687,
				0.015404359437525272
			],
			"min":[
				0.060951437801122665,
				0.11562797427177429,
				0.010303006507456303
			],
			"type":"VEC3"
		},
		{
			"bufferView":16,
			"componentType":5126,
			"count":258,
			"type":"VEC3"
		},
		{
			"bufferView":17,
			"componentType":5123,
			"count":1449,
			"type":"SCALAR"
		},
		{
			"bufferView":18,
			"componentType":5126,
			"count":320,
			"max":[
				0.06406984478235245,
				0.11424767225980759,
				0.013797655701637268
			],
			"min":[
				0.06044672429561615,
				0.10467664897441864,
				0.007839118130505085
			],
			"type":"VEC3"
		},
		{
			"bufferView":19,
			"componentType":5126,
			"count":320,
			"type":"VEC3"
		},
		{
			"bufferView":20,
			"componentType":5123,
			"count":1818,
			"type":"SCALAR"
		},
		{
			"bufferView":21,
			"componentType":5126,
			"count":349,
			"max":[
				0.060752592980861664,
				0.11273718625307083,
				0.012732976116240025
			],
			"min":[
				0.057575907558202744,
				0.10243025422096252,
				0.006498717702925205
			],
			"type":"VEC3"
		},
		{
			"bufferView":22,
			"componentType":5126,
			"count":349,
			"type":"VEC3"
		},
		{
			"bufferView":23,
			"componentType":5123,
			"count":2001,
			"type":"SCALAR"
		},
		{
			"bufferView":24,
			"componentType":5126,
			"count":332,
			"max":[
				0.05719130113720894,
				0.11245022714138031,
				0.010808790102601051
			],
			"min":[
				0.05425640940666199,
				0.10281676799058914,
				0.005124859511852264
			],
			"type":"VEC3"
		},
		{
			"bufferView":25,
			"componentType":5126,
			"count":332,
			"type":"VEC3"
		},
		{
			"bufferView":26,
			"componentType":5123,
			"count":1893,
			"type":"SCALAR"
		},
		{
			"bufferView":27,
			"componentType":5126,
			"count":270,
			"max":[
				0.05381826311349869,
				0.11298798024654388,
				0.0084706861525774
			],
			"min":[
				0.0506637841463089,
				0.10493157804012299,
				0.004685877822339535
			],
			"type":"VEC3"
		},
		{
			"bufferView":28,
			"componentType":5126,
			"count":270,
			"type":"VEC3"
		},
		{
			"bufferView":29,
			"componentType":5123,
			"count":1533,
			"type":"SCALAR"
		}
	],
	"bufferViews":[
		{
			"buffer":0,
			"byteLength":644832,
			"byteOffset":0,
			"target":34962
		},
		{
			"buffer":0,
			"byteLength":644832,
			"byteOffset":644832,
			"target":34962
		},
		{
			"buffer":0,
			"byteLength":644262,
			"byteOffset":1289664,
			"target":34963
		},
		{
			"buffer":0,
			"byteLength":16452,
			"byteOffset":1933928,
			"target":34962
		},
		{
			"buffer":0,
			"byteLength":16452,
			"byteOffset":1950380,
			"target":34962
		},
		{
			"buffer":0,
			"byteLength":15678,
			"byteOffset":1966832,
			"target":34963
		},
		{
			"buffer":0,
			"byteLength":24996,
			"byteOffset":1982512,
			"target":34962
		},
		{
			"buffer":0,
			"byteLength":24996,
			"byteOffset":2007508,
			"target":34962
		},
		{
			"buffer":0,
			"byteLength":23988,
			"byteOffset":2032504,
			"target":34963
		},
		{
			"buffer":0,
			"byteLength":22884,
			"byteOffset":2056492,
			"target":34962
		},
		{
			"buffer":0,
			"byteLength":22884,
			"byteOffset":2079376,
			"target":34962
		},
		{
			"buffer":0,
			"byteLength":22080,
			"byteOffset":2102260,
			"target":34963
		},
		{
			"buffer":0,
			"byteLength":17796,
			"byteOffset":2124340,
			"target":34962
		},
		{
			"buffer":0,
			"byteLength":17796,
			"byteOffset":2142136,
			"target":34962
		},
		{
			"buffer":0,
			"byteLength":16608,
			"byteOffset":2159932,
			"target":34963
		},
		{
			"buffer":0,
			"byteLength":3096,
			"byteOffset":2176540,
			"target":34962
		},
		{
			"buffer":0,
			"byteLength":3096,
			"byteOffset":2179636,
			"target":34962
		},
		{
			"buffer":0,
			"byteLength":2898,
			"byteOffset":2182732,
			"target":34963
		},
		{
			"buffer":0,
			"byteLength":3840,
			"byteOffset":2185632,
			"target":34962
		},
		{
			"buffer":0,
			"byteLength":3840,
			"byteOffset":2189472,
			"target":34962
		},
		{
			"buffer":0,
			"byteLength":3636,
			"byteOffset":2193312,
			"target":34963
		},
		{
			"buffer":0,
			"byteLength":4188,
			"byteOffset":2196948,
			"target":34962
		},
		{
			"buffer":0,
			"byteLength":4188,
			"byteOffset":2201136,
			"target":34962
		},
		{
			"buffer":0,
			"byteLength":4002,
			"byteOffset":2205324,
			"target":34963
		},
		{
			"buffer":0,
			"byteLength":3984,
			"byteOffset":2209328,
			"target":34962
		},
		{
			"buffer":0,
			"byteLength":3984,
			"byteOffset":2213312,
			"target":34962
		},
		{
			"buffer":0,
			"byteLength":3786,
			"byteOffset":2217296,
			"target":34963
		},
		{
			"buffer":0,
			"byteLength":3240,
			"byteOffset":2221084,
			"target":34962
		},
		{
			"buffer":0,
			"byteLength":3240,
			"byteOffset":2224324,
			"target":34962
		},
		{
			"buffer":0,
			"byteLength":3066,
			"byteOffset":2227564,
			"target":34963
		}
	],
	"buffers":[
		{
			"byteLength":2230632,
			"uri":"EnglishModel.bin"
		}
	]
}
