{
	"asset":{
		"generator":"Khronos glTF Blender I/O v4.2.57",
		"version":"2.0"
	},
	"scene":0,
	"scenes":[
		{
			"name":"Scene",
			"nodes":[
				0
			]
		}
	],
	"nodes":[
		{
			"mesh":0,
			"name":"Cuerpo"
		}
	],
	"materials":[
		{
			"doubleSided":true,
			"name":"BodyMat",
			"pbrMetallicRoughness":{
				"baseColorFactor":[
					0.38235294818878174,
					0.38235294818878174,
					0.38235294818878174,
					1
				],
				"metallicFactor":0,
				"roughnessFactor":0.5
			}
		}
	],
	"meshes":[
		{
			"name":"body012_2",
			"primitives":[
				{
					"attributes":{
						"POSITION":0,
						"NORMAL":1
					},
					"indices":2,
					"material":0
				}
			]
		}
	],
	"accessors":[
		{
			"bufferView":0,
			"componentType":5126,
			"count":61654,
			"max":[
				0.06558844447135925,
				0.23720897734165192,
				0.021686360239982605
			],
			"min":[
				-0.06575111299753189,
				-0.0015775536885485053,
				-0.017477886751294136
			],
			"type":"VEC3"
		},
		{
			"bufferView":1,
			"componentType":5126,
			"count":61654,
			"type":"VEC3"
		},
		{
			"bufferView":2,
			"componentType":5123,
			"count":370002,
			"type":"SCALAR"
		}
	],
	"bufferViews":[
		{
			"buffer":0,
			"byteLength":739848,
			"byteOffset":0,
			"target":34962
		},
		{
			"buffer":0,
			"byteLength":739848,
			"byteOffset":739848,
			"target":34962
		},
		{
			"buffer":0,
			"byteLength":740004,
			"byteOffset":1479696,
			"target":34963
		}
	],
	"buffers":[
		{
			"byteLength":2219700,
			"uri":"model.bin"
		}
	]
}
