{
  "accessors": [
    {
      "bufferView": 1,
      "componentType": 5126,
      "count": 65532,
      "max": [
        0.09460099786520004,
        1.795225977897644,
        0.09713800251483917
      ],
      "min": [
        -0.45849400758743286,
        0.06478200107812881,
        -0.18949100375175476
      ],
      "type": "VEC3"
    },
    {
      "bufferView": 1,
      "byteOffset": 786384,
      "componentType": 5126,
      "count": 65532,
      "max": [
        0.9068369269371033,
        0.9999589920043945,
        0.9999996423721313
      ],
      "min": [
        -0.9999998807907104,
        -0.9999891519546509,
        -0.9999996423721313
      ],
      "type": "VEC3"
    },
    {
      "bufferView": 0,
      "componentType": 5125,
      "count": 345018,
      "type": "SCALAR"
    },
    {
      "bufferView": 1,
      "byteOffset": 1572768,
      "componentType": 5126,
      "count": 65532,
      "max": [
        0.14746800065040588,
        1.5411900281906128,
        0.13834300637245178
      ],
      "min": [
        -0.6893219947814941,
        0.007091000210493803,
        -0.18348699808120728
      ],
      "type": "VEC3"
    },
    {
      "bufferView": 1,
      "byteOffset": 2359152,
      "componentType": 5126,
      "count": 65532,
      "max": [
        0.9999648332595825,
        0.9983860850334167,
        0.9999840259552002
      ],
      "min": [
        -0.9999861717224121,
        -0.9999861717224121,
        -0.9999148845672607
      ],
      "type": "VEC3"
    },
    {
      "bufferView": 0,
      "byteOffset": 1380072,
      "componentType": 5125,
      "count": 338211,
      "type": "SCALAR"
    },
    {
      "bufferView": 1,
      "byteOffset": 3145536,
      "componentType": 5126,
      "count": 65532,
      "max": [
        0.2114650011062622,
        1.795341968536377,
        0.13834300637245178
      ],
      "min": [
        -0.49287500977516174,
        0.007054000161588192,
        -0.1502320021390915
      ],
      "type": "VEC3"
    },
    {
      "bufferView": 1,
      "byteOffset": 3931920,
      "componentType": 5126,
      "count": 65532,
      "max": [
        0.9998977184295654,
        0.9999998807907104,
        0.999991774559021
      ],
      "min": [
        -0.9999692440032959,
        -0.9999994039535522,
        -0.9999978542327881
      ],
      "type": "VEC3"
    },
    {
      "bufferView": 0,
      "byteOffset": 2732916,
      "componentType": 5125,
      "count": 332058,
      "type": "SCALAR"
    },
    {
      "bufferView": 1,
      "byteOffset": 4718304,
      "componentType": 5126,
      "count": 65532,
      "max": [
        0.6625080108642578,
        1.4660049676895142,
        0.11194799840450287
      ],
      "min": [
        -0.10669200122356415,
        0.058719001710414886,
        -0.17004400491714478
      ],
      "type": "VEC3"
    },
    {
      "bufferView": 1,
      "byteOffset": 5504688,
      "componentType": 5126,
      "count": 65532,
      "max": [
        0.9999427795410156,
        0.8815219402313232,
        0.9999992847442627
      ],
      "min": [
        -0.9999796152114868,
        -0.9999130964279175,
        -0.9999803304672241
      ],
      "type": "VEC3"
    },
    {
      "bufferView": 0,
      "byteOffset": 4061148,
      "componentType": 5125,
      "count": 338109,
      "type": "SCALAR"
    },
    {
      "bufferView": 1,
      "byteOffset": 6291072,
      "componentType": 5126,
      "count": 65532,
      "max": [
        0.6568610072135925,
        1.760267972946167,
        0.12693099677562714
      ],
      "min": [
        -0.0014479999663308263,
        0.007466999813914299,
        -0.18949100375175476
      ],
      "type": "VEC3"
    },
    {
      "bufferView": 1,
      "byteOffset": 7077456,
      "componentType": 5126,
      "count": 65532,
      "max": [
        0.9998128414154053,
        0.9999589920043945,
        0.9993618726730347
      ],
      "min": [
        -0.9999676942825317,
        -0.9999994039535522,
        -0.9999905824661255
      ],
      "type": "VEC3"
    },
    {
      "bufferView": 0,
      "byteOffset": 5413584,
      "componentType": 5125,
      "count": 347097,
      "type": "SCALAR"
    },
    {
      "bufferView": 1,
      "byteOffset": 7863840,
      "componentType": 5126,
      "count": 65532,
      "max": [
        0.5115029811859131,
        1.7635149955749512,
        0.10384300351142883
      ],
      "min": [
        -0.013504000380635262,
        0.007054000161588192,
        -0.13667899370193481
      ],
      "type": "VEC3"
    },
    {
      "bufferView": 1,
      "byteOffset": 8650224,
      "componentType": 5126,
      "count": 65532,
      "max": [
        0.9999850988388062,
        0.9992806911468506,
        0.9915556311607361
      ],
      "min": [
        -0.9999692440032959,
        -0.9999898672103882,
        -0.9999990463256836
      ],
      "type": "VEC3"
    },
    {
      "bufferView": 0,
      "byteOffset": 6801972,
      "componentType": 5125,
      "count": 327261,
      "type": "SCALAR"
    },
    {
      "bufferView": 1,
      "byteOffset": 9436608,
      "componentType": 5126,
      "count": 65532,
      "max": [
        0.6672300100326538,
        1.7944769859313965,
        0.13382600247859955
      ],
      "min": [
        -0.11009299755096436,
        0.008050000295042992,
        -0.11766699701547623
      ],
      "type": "VEC3"
    },
    {
      "bufferView": 1,
      "byteOffset": 10222992,
      "componentType": 5126,
      "count": 65532,
      "max": [
        0.9999998807907104,
        0.999670147895813,
        0.9999630451202393
      ],
      "min": [
        -0.9998977184295654,
        -0.9999946355819702,
        -0.9989572167396545
      ],
      "type": "VEC3"
    },
    {
      "bufferView": 0,
      "byteOffset": 8111016,
      "componentType": 5125,
      "count": 304632,
      "type": "SCALAR"
    },
    {
      "bufferView": 1,
      "byteOffset": 11009376,
      "componentType": 5126,
      "count": 65532,
      "max": [
        0.6917960047721863,
        1.7657150030136108,
        0.13235199451446533
      ],
      "min": [
        -0.6917960047721863,
        0.007848000153899193,
        -0.1078609973192215
      ],
      "type": "VEC3"
    },
    {
      "bufferView": 1,
      "byteOffset": 11795760,
      "componentType": 5126,
      "count": 65532,
      "max": [
        0.9999961853027344,
        0.9879589676856995,
        0.9999998807907104
      ],
      "min": [
        -0.9997642040252686,
        -0.9999587535858154,
        -0.9967073202133179
      ],
      "type": "VEC3"
    },
    {
      "bufferView": 0,
      "byteOffset": 9329544,
      "componentType": 5125,
      "count": 322080,
      "type": "SCALAR"
    },
    {
      "bufferView": 1,
      "byteOffset": 12582144,
      "componentType": 5126,
      "count": 65532,
      "max": [
        0.6875429749488831,
        1.789281964302063,
        0.13834300637245178
      ],
      "min": [
        -0.6848949790000916,
        0.007215999998152256,
        -0.18922799825668335
      ],
      "type": "VEC3"
    },
    {
      "bufferView": 1,
      "byteOffset": 13368528,
      "componentType": 5126,
      "count": 65532,
      "max": [
        0.999964714050293,
        0.9977021217346191,
        0.999991774559021
      ],
      "min": [
        -0.982246458530426,
        -0.9999994039535522,
        -0.999946117401123
      ],
      "type": "VEC3"
    },
    {
      "bufferView": 0,
      "byteOffset": 10617864,
      "componentType": 5125,
      "count": 327267,
      "type": "SCALAR"
    },
    {
      "bufferView": 1,
      "byteOffset": 14154912,
      "componentType": 5126,
      "count": 65532,
      "max": [
        0.6917080283164978,
        1.7943190336227417,
        0.13794200122356415
      ],
      "min": [
        -0.6871939897537231,
        0.007765999995172024,
        -0.18853899836540222
      ],
      "type": "VEC3"
    },
    {
      "bufferView": 1,
      "byteOffset": 14941296,
      "componentType": 5126,
      "count": 65532,
      "max": [
        0.9999995231628418,
        0.9936169385910034,
        0.9999996423721313
      ],
      "min": [
        -0.9996559619903564,
        -0.9999861717224121,
        -0.9999996423721313
      ],
      "type": "VEC3"
    },
    {
      "bufferView": 0,
      "byteOffset": 11926932,
      "componentType": 5125,
      "count": 269403,
      "type": "SCALAR"
    },
    {
      "bufferView": 1,
      "byteOffset": 15727680,
      "componentType": 5126,
      "count": 48534,
      "max": [
        0.0,
        1.7945760488510132,
        0.07953400164842606
      ],
      "min": [
        -0.6905930042266846,
        0.007120999973267317,
        -0.13501299917697906
      ],
      "type": "VEC3"
    },
    {
      "bufferView": 1,
      "byteOffset": 16310088,
      "componentType": 5126,
      "count": 48534,
      "max": [
        0.9999676942825317,
        0.999670147895813,
        0.9985772967338562
      ],
      "min": [
        -0.9999961853027344,
        -0.9999891519546509,
        -0.9999978542327881
      ],
      "type": "VEC3"
    },
    {
      "bufferView": 0,
      "byteOffset": 13004544,
      "componentType": 5125,
      "count": 148386,
      "type": "SCALAR"
    }
  ],
  "asset": {
    "extras": {
      "author": "zeroran (https://sketchfab.com/zeroran)",
      "license": "CC-BY-4.0 (http://creativecommons.org/licenses/by/4.0/)",
      "source": "https://sketchfab.com/3d-models/anatomy-basemesh-human-male-body-model-sculpture-8c49edd7e9bd4dc7ba3c4b493b00d7ab",
      "title": "Anatomy Basemesh Human Male Body Model Sculpture"
    },
    "generator": "Sketchfab-12.66.0",
    "version": "2.0"
  },
  "bufferViews": [
    {
      "buffer": 0,
      "byteLength": 13598088,
      "name": "floatBufferViews",
      "target": 34963
    },
    {
      "buffer": 0,
      "byteLength": 16892496,
      "byteOffset": 13598088,
      "byteStride": 12,
      "name": "floatBufferViews",
      "target": 34962
    }
  ],
  "buffers": [
    {
      "byteLength": 30490584,
      "uri": "scene.bin"
    }
  ],
  "materials": [
    {
      "name": "null",
      "pbrMetallicRoughness": {
        "baseColorFactor": [
          0.3989490790532008,
          0.3185521916493475,
          0.26018997849655184,
          1.0
        ],
        "metallicFactor": 0.0,
        "roughnessFactor": 0.580983231707317
      }
    }
  ],
  "meshes": [
    {
      "name": "60Wip_(null)_0",
      "primitives": [
        {
          "attributes": {
            "NORMAL": 1,
            "POSITION": 0
          },
          "indices": 2,
          "material": 0,
          "mode": 4
        }
      ]
    },
    {
      "name": "60Wip_(null)_0",
      "primitives": [
        {
          "attributes": {
            "NORMAL": 4,
            "POSITION": 3
          },
          "indices": 5,
          "material": 0,
          "mode": 4
        }
      ]
    },
    {
      "name": "60Wip_(null)_0",
      "primitives": [
        {
          "attributes": {
            "NORMAL": 7,
            "POSITION": 6
          },
          "indices": 8,
          "material": 0,
          "mode": 4
        }
      ]
    },
    {
      "name": "60Wip_(null)_0",
      "primitives": [
        {
          "attributes": {
            "NORMAL": 10,
            "POSITION": 9
          },
          "indices": 11,
          "material": 0,
          "mode": 4
        }
      ]
    },
    {
      "name": "60Wip_(null)_0",
      "primitives": [
        {
          "attributes": {
            "NORMAL": 13,
            "POSITION": 12
          },
          "indices": 14,
          "material": 0,
          "mode": 4
        }
      ]
    },
    {
      "name": "60Wip_(null)_0",
      "primitives": [
        {
          "attributes": {
            "NORMAL": 16,
            "POSITION": 15
          },
          "indices": 17,
          "material": 0,
          "mode": 4
        }
      ]
    },
    {
      "name": "60Wip_(null)_0",
      "primitives": [
        {
          "attributes": {
            "NORMAL": 19,
            "POSITION": 18
          },
          "indices": 20,
          "material": 0,
          "mode": 4
        }
      ]
    },
    {
      "name": "60Wip_(null)_0",
      "primitives": [
        {
          "attributes": {
            "NORMAL": 22,
            "POSITION": 21
          },
          "indices": 23,
          "material": 0,
          "mode": 4
        }
      ]
    },
    {
      "name": "60Wip_(null)_0",
      "primitives": [
        {
          "attributes": {
            "NORMAL": 25,
            "POSITION": 24
          },
          "indices": 26,
          "material": 0,
          "mode": 4
        }
      ]
    },
    {
      "name": "60Wip_(null)_0",
      "primitives": [
        {
          "attributes": {
            "NORMAL": 28,
            "POSITION": 27
          },
          "indices": 29,
          "material": 0,
          "mode": 4
        }
      ]
    },
    {
      "name": "60Wip_(null)_0",
      "primitives": [
        {
          "attributes": {
            "NORMAL": 31,
            "POSITION": 30
          },
          "indices": 32,
          "material": 0,
          "mode": 4
        }
      ]
    }
  ],
  "nodes": [
    {
      "children": [
        1
      ],
      "matrix": [
        0.009999999776482582,
        0.0,
        0.0,
        0.0,
        0.0,
        2.2204459996194763e-18,
        -0.009999999776482582,
        0.0,
        0.0,
        0.009999999776482582,
        2.2204459996194763e-18,
        0.0,
        0.0,
        0.0,
        0.0,
        1.0
      ],
      "name": "Sketchfab_model"
    },
    {
      "children": [
        2
      ],
      "matrix": [
        1.0,
        0.0,
        0.0,
        0.0,
        0.0,
        0.0,
        1.0,
        0.0,
        0.0,
        -1.0,
        0.0,
        0.0,
        0.0,
        0.0,
        0.0,
        1.0
      ],
      "name": "43e75eca3c9546abb3b37e98bf27a3ea.fbx"
    },
    {
      "children": [
        3
      ],
      "name": "RootNode"
    },
    {
      "children": [
        4,
        5,
        6,
        7,
        8,
        9,
        10,
        11,
        12,
        13,
        14
      ],
      "matrix": [
        100.0,
        0.0,
        0.0,
        0.0,
        0.0,
        99.99999999999866,
        1.6292067073209114e-05,
        0.0,
        0.0,
        -1.6292067073209114e-05,
        99.99999999999866,
        0.0,
        0.0,
        0.0,
        0.0,
        1.0
      ],
      "name": "60Wip"
    },
    {
      "mesh": 0,
      "name": "60Wip_(null)_0"
    },
    {
      "mesh": 1,
      "name": "60Wip_(null)_0"
    },
    {
      "mesh": 2,
      "name": "60Wip_(null)_0"
    },
    {
      "mesh": 3,
      "name": "60Wip_(null)_0"
    },
    {
      "mesh": 4,
      "name": "60Wip_(null)_0"
    },
    {
      "mesh": 5,
      "name": "60Wip_(null)_0"
    },
    {
      "mesh": 6,
      "name": "60Wip_(null)_0"
    },
    {
      "mesh": 7,
      "name": "60Wip_(null)_0"
    },
    {
      "mesh": 8,
      "name": "60Wip_(null)_0"
    },
    {
      "mesh": 9,
      "name": "60Wip_(null)_0"
    },
    {
      "mesh": 10,
      "name": "60Wip_(null)_0"
    }
  ],
  "scene": 0,
  "scenes": [
    {
      "name": "Sketchfab_Scene",
      "nodes": [
        0
      ]
    }
  ]
}
